<svg xmlns="http://www.w3.org/2000/svg" viewBox="0 0 900 340" role="img" aria-labelledby="t d">
  <title id="t">Kyle Distributors Logo</title>
  <desc id="d">Stylized antelope icon with Kyle Distributors wordmark.</desc>
  <g fill="#1f4f30">
    <path d="M290 120c-48-35-58-78-52-112 42 15 84 57 88 112-9-7-20-7-36 0z"/>
    <path d="M610 120c48-35 58-78 52-112-42 15-84 57-88 112 9-7 20-7 36 0z"/>
    <path d="M330 110c-30-26-49-57-51-96 29 16 56 46 70 84-6 1-12 5-19 12z"/>
    <path d="M570 110c30-26 49-57 51-96-29 16-56 46-70 84 6 1 12 5 19 12z"/>
    <path d="M450 90c52 0 96 36 106 86-21-20-41-20-58 0-12 14-30 22-48 22s-36-8-48-22c-17-20-37-20-58 0 10-50 54-86 106-86z"/>
    <path d="M388 185c-14 10-24 26-28 46 19-14 38-18 56-11z"/>
    <path d="M512 185c14 10 24 26 28 46-19-14-38-18-56-11z"/>
    <ellipse cx="450" cy="228" rx="34" ry="22"/>
    <path d="M416 246c18 22 50 22 68 0-3 20-16 34-34 34s-31-14-34-34z"/>
  </g>
  <text x="120" y="320" font-family="Merriweather, Georgia, serif" font-size="170" fill="#f7f7f7">Kyle</text>
  <text x="525" y="320" font-family="Space Grotesk, Segoe UI, sans-serif" font-size="80" font-weight="700" fill="#f7f7f7">Distributors</text>
</svg>
